<svg id="Слой_1" data-name="Слой 1" xmlns="http://www.w3.org/2000/svg" viewBox="0 0 92.75 153.18"><defs><style>.cls-1{fill:#fdf709;}.cls-2{fill:#1d1d1b;}</style></defs><title>Logo-antiBabylon</title><rect class="cls-1" y="116.81" width="92.75" height="18.71"/><polygon class="cls-1" points="55.25 79.36 55.25 93.18 55.25 106.78 63.86 106.78 63.86 79.36 80.76 79.36 80.76 70.75 63.86 70.75 51.09 70.75 36.92 70.75 36.92 70.75 43.95 79.36 55.25 79.36"/><path class="cls-2" d="M108.23,183.72a1.51,1.51,0,0,0-.55-.4,2.21,2.21,0,0,0-.81-.14H105.4v6.68h1.38a1.82,1.82,0,0,0,1.41-.49,2,2,0,0,0,.44-1.38v-.37a1.94,1.94,0,0,0-.16-.86,1.19,1.19,0,0,0-.36-.41l.12-.09a1.13,1.13,0,0,0,.22-.27,1.22,1.22,0,0,0,.14-.35,2.17,2.17,0,0,0,0-.47v-.24a2.37,2.37,0,0,0-.09-.65,1.35,1.35,0,0,0-.31-.56m-.85,1.92a.6.6,0,0,1-.52.18h-.29V184.3h.26a.67.67,0,0,1,.54.17.89.89,0,0,1,.14.57,1.07,1.07,0,0,1-.13.6m-.81,1.24h.28a.87.87,0,0,1,.36.06.45.45,0,0,1,.19.14.73.73,0,0,1,.09.25,2.42,2.42,0,0,1,0,.4c0,.16,0,.3,0,.42a.66.66,0,0,1-.09.3.42.42,0,0,1-.18.17.82.82,0,0,1-.39.07h-.27Z" transform="translate(-93.32 -60.19)"/><path class="cls-2" d="M117.39,183.18l-1.5,6.69h1.18l.28-1.39h1.05l.27,1.39h1.18l-1.49-6.69Zm.79,4.18h-.62l.31-1.59Z" transform="translate(-93.32 -60.19)"/><path class="cls-2" d="M130.27,186a1.22,1.22,0,0,0,.14-.35,2.17,2.17,0,0,0,0-.47v-.24a2.37,2.37,0,0,0-.09-.65,1.5,1.5,0,0,0-.87-1,2.12,2.12,0,0,0-.8-.14h-1.47v6.68h1.38a1.82,1.82,0,0,0,1.41-.49,2,2,0,0,0,.44-1.38v-.37a1.93,1.93,0,0,0-.17-.86,1.07,1.07,0,0,0-.35-.41l.12-.09a1.44,1.44,0,0,0,.22-.27m-1.07-.35a.6.6,0,0,1-.52.18h-.29V184.3h.25a.65.65,0,0,1,.54.17.88.88,0,0,1,.15.57,1.07,1.07,0,0,1-.13.6m-.81,1.24h.28a.9.9,0,0,1,.36.06.37.37,0,0,1,.18.14.57.57,0,0,1,.1.25c0,.11,0,.25,0,.4a2.68,2.68,0,0,1,0,.42.66.66,0,0,1-.08.3.4.4,0,0,1-.19.17.75.75,0,0,1-.38.07h-.27Z" transform="translate(-93.32 -60.19)"/><polygon class="cls-2" points="46.97 129.67 46.97 126.85 48.29 122.98 47.05 122.98 46.39 125.25 45.73 122.98 44.49 122.98 45.8 126.85 45.8 129.67 46.97 129.67"/><polygon class="cls-2" points="55.65 122.98 55.65 129.67 58.65 129.67 58.65 128.5 56.82 128.5 56.82 122.98 55.65 122.98"/><path class="cls-2" d="M162.26,183.55a1.71,1.71,0,0,0-.53-.32,1.77,1.77,0,0,0-1.2,0,1.64,1.64,0,0,0-.54.32,1.62,1.62,0,0,0-.39.53,2,2,0,0,0-.14.74v3.4a2,2,0,0,0,.14.75,1.74,1.74,0,0,0,.39.53,1.74,1.74,0,0,0,1.74.31,1.89,1.89,0,0,0,.53-.31,1.74,1.74,0,0,0,.39-.53,1.79,1.79,0,0,0,.15-.75v-3.4a1.78,1.78,0,0,0-.15-.74,1.62,1.62,0,0,0-.39-.53m-.63,1.27v3.4a.49.49,0,0,1-.15.4.56.56,0,0,1-.71,0,.48.48,0,0,1-.14-.4v-3.4a.5.5,0,0,1,.14-.4.56.56,0,0,1,.36-.12.53.53,0,0,1,.35.12.51.51,0,0,1,.15.4" transform="translate(-93.32 -60.19)"/><polygon class="cls-2" points="79.5 126.32 78.33 123.07 78.3 122.98 77.2 122.98 77.2 129.67 78.37 129.67 78.37 126.34 79.56 129.59 79.59 129.67 80.67 129.67 80.67 122.98 79.5 122.98 79.5 126.32"/><rect class="cls-2" x="28.87" y="144.57" width="35" height="8.61"/><path class="cls-2" d="M106.57,139.55h19.58L148.57,167h0v-13.6l-11.3-13.82-7-8.6h0v-16l14.17,16h12.77V60.19h-.28l-8.33,3v59.48l-19.41-22-7.53,2.85v16.89l-16-19.62L98,103.52V167h8.61Zm0-24,12.55,15.35H106.57Z" transform="translate(-93.32 -60.19)"/><rect class="cls-2" x="80.76" y="40.47" width="8.61" height="12.04"/><polygon class="cls-2" points="80.76 70.75 80.76 79.36 80.76 106.78 89.37 106.78 89.37 57.23 80.76 57.23 80.76 70.75"/></svg>