<?xml version="1.0" standalone="no"?>
<!DOCTYPE svg PUBLIC "-//W3C//DTD SVG 20010904//EN"
 "http://www.w3.org/TR/2001/REC-SVG-20010904/DTD/svg10.dtd">
<svg version="1.0" xmlns="http://www.w3.org/2000/svg"
 width="2019.000000pt" height="294.000000pt" viewBox="0 0 2019.000000 294.000000"
 preserveAspectRatio="xMidYMid meet">

<g transform="translate(0.000000,294.000000) scale(0.100000,-0.100000)"
fill="#000000" stroke="none">
<path d="M19820 2919 c-146 -4 -488 -12 -760 -18 -272 -6 -756 -18 -1075 -26
-319 -8 -881 -22 -1250 -30 -368 -8 -841 -19 -1050 -25 -209 -6 -681 -17
-1050 -25 -368 -8 -749 -17 -845 -20 -96 -3 -569 -15 -1050 -25 -481 -11
-1059 -24 -1285 -30 -225 -6 -1175 -28 -2110 -50 -935 -22 -2071 -49 -2525
-60 -454 -11 -1122 -26 -1485 -35 -363 -8 -734 -17 -825 -20 -91 -3 -478 -12
-860 -20 -382 -8 -861 -19 -1065 -25 -203 -6 -579 -15 -835 -20 -705 -15
-1735 -41 -1738 -44 -2 -3 15 -207 44 -516 17 -190 37 -402 58 -645 9 -93 22
-242 31 -330 8 -88 21 -239 30 -335 8 -96 17 -191 20 -210 3 -19 10 -96 15
-170 6 -74 13 -157 17 -184 l6 -48 216 6 c119 3 664 8 1211 11 547 3 1218 7
1490 10 272 3 932 7 1465 10 534 3 1143 7 1355 10 212 3 745 7 1185 10 1393 9
2310 15 2970 20 352 3 946 7 1320 10 374 3 914 7 1200 10 286 3 995 7 1575 10
580 3 1240 7 1465 10 850 10 4344 32 4410 28 28 -2 56 1 64 6 13 8 12 186 -3
1338 -9 730 -19 1352 -22 1381 -5 46 -8 52 -27 50 -12 -1 -141 -5 -287 -9z"/>
</g>
</svg>
