<?xml version="1.0" standalone="no"?>
<!DOCTYPE svg PUBLIC "-//W3C//DTD SVG 20010904//EN"
 "http://www.w3.org/TR/2001/REC-SVG-20010904/DTD/svg10.dtd">
<svg version="1.0" xmlns="http://www.w3.org/2000/svg"
 width="2015.000000pt" height="289.000000pt" viewBox="0 0 2015.000000 289.000000"
 preserveAspectRatio="xMidYMid meet">

<g transform="translate(0.000000,289.000000) scale(0.100000,-0.100000)"
fill="#000000" stroke="none">
<path d="M18165 2869 c-621 -4 -2547 -15 -4280 -23 -1732 -9 -3942 -21 -4910
-26 -968 -5 -3308 -16 -5200 -25 -1892 -9 -3513 -18 -3603 -22 l-164 -5 6
-172 c3 -94 8 -398 11 -676 3 -278 7 -633 10 -790 3 -157 8 -473 11 -702 l6
-418 230 0 c126 0 361 4 521 10 310 10 567 16 2497 55 2194 45 2643 54 2795
60 213 8 828 21 2515 55 2009 41 2840 59 3000 65 131 6 493 13 2550 55 1672
34 2380 49 2775 60 554 15 1139 27 2110 45 473 9 880 19 905 23 l45 7 72 1155
c39 635 73 1183 75 1218 l4 62 -426 -2 c-234 -1 -933 -5 -1555 -9z"/>
</g>
</svg>
