<?xml version="1.0" standalone="no"?>
<!DOCTYPE svg PUBLIC "-//W3C//DTD SVG 20010904//EN"
 "http://www.w3.org/TR/2001/REC-SVG-20010904/DTD/svg10.dtd">
<svg version="1.0" xmlns="http://www.w3.org/2000/svg"
 width="1101.000000pt" height="666.000000pt" viewBox="0 0 1101.000000 666.000000"
 preserveAspectRatio="xMidYMid meet">

<g transform="translate(0.000000,666.000000) scale(0.100000,-0.100000)"
fill="#000000" stroke="none">
<path d="M4100 6337 c-14 -12 -53 -56 -86 -97 -34 -41 -71 -84 -83 -94 -11
-11 -21 -25 -21 -33 0 -7 19 -46 41 -86 23 -40 60 -124 84 -187 51 -140 66
-154 138 -126 25 9 73 35 106 56 l61 40 0 177 c0 165 -2 182 -24 238 -24 56
-28 61 -98 97 -40 20 -77 37 -83 37 -5 0 -21 -10 -35 -22z"/>
<path d="M6257 5821 c-59 -12 -119 -79 -182 -201 -66 -130 -95 -215 -95 -279
0 -48 2 -51 68 -111 113 -105 77 -107 339 23 226 114 229 116 294 188 36 41
71 83 77 94 14 28 -31 232 -55 251 -10 7 -40 18 -68 25 -61 14 -326 21 -378
10z"/>
<path d="M10754 5365 c-87 -13 -146 -33 -354 -118 -99 -41 -489 -167 -705
-228 -83 -23 -181 -51 -220 -62 -59 -16 -117 -21 -365 -27 -228 -6 -340 -14
-490 -34 l-196 -26 -189 30 c-270 43 -452 90 -780 200 -149 50 -202 58 -280
41 -43 -9 -55 -39 -135 -346 -86 -330 -88 -335 -165 -515 -90 -210 -130 -319
-171 -475 -44 -170 -46 -211 -11 -264 54 -82 -21 -76 992 -73 883 3 903 4
1079 27 106 15 225 37 290 56 96 28 125 42 216 104 138 95 253 162 394 230
124 59 120 55 232 217 26 37 54 58 155 113 68 37 158 89 199 115 41 26 102 61
136 78 82 41 119 74 171 152 24 36 81 114 128 175 102 133 142 200 121 208 -8
3 -32 -8 -54 -24 -23 -17 -73 -47 -111 -69 -65 -35 -71 -37 -71 -18 0 22 4 26
147 143 97 80 213 206 213 232 0 12 -6 14 -27 8 -44 -10 -223 -99 -282 -139
l-53 -36 -34 21 c-19 11 -34 27 -34 34 0 21 87 79 211 141 112 55 249 133 249
140 0 8 -118 1 -206 -11z"/>
<path d="M3520 5264 c-32 -14 -75 -24 -104 -24 -44 0 -67 -11 -215 -97 -116
-68 -189 -119 -242 -168 -169 -157 -287 -252 -354 -285 -74 -37 -123 -81 -167
-148 -35 -53 -61 -66 -237 -114 -190 -51 -306 -75 -411 -82 -47 -4 -120 -14
-163 -22 -70 -14 -84 -14 -147 0 -38 9 -85 16 -105 16 -80 0 -266 57 -430 132
-280 129 -311 136 -562 134 -109 -1 -172 -5 -172 -11 1 -5 43 -27 93 -49 50
-21 95 -42 100 -47 11 -10 -30 -59 -49 -59 -6 0 -78 27 -160 60 -82 33 -158
60 -169 60 -41 0 25 -48 168 -122 77 -40 149 -81 158 -90 15 -15 26 -68 14
-68 -12 0 -227 94 -264 116 -24 14 -46 23 -49 20 -21 -21 144 -132 322 -217
130 -62 159 -86 199 -165 30 -61 107 -131 154 -140 22 -4 43 -20 65 -47 75
-93 106 -118 232 -188 72 -39 155 -89 187 -110 34 -24 68 -39 86 -39 30 0 143
-32 242 -69 53 -20 76 -20 640 -21 357 0 599 4 621 10 19 6 45 20 56 32 11 13
102 196 203 408 100 212 244 507 320 655 175 342 280 579 280 629 0 53 -46
138 -74 135 -6 -1 -36 -12 -66 -25z"/>
<path d="M5280 5249 c-52 -22 -102 -47 -112 -57 -27 -28 -139 -307 -148 -369
-14 -95 20 -226 118 -463 36 -85 46 -100 98 -143 62 -50 186 -114 472 -243
148 -66 177 -76 200 -68 l27 9 3 178 c1 112 -1 185 -8 197 -15 29 -143 179
-248 293 -77 83 -94 107 -108 155 -9 31 -30 95 -47 142 -27 74 -32 103 -37
220 -3 74 -11 145 -18 156 -25 46 -68 44 -192 -7z"/>
<path d="M4265 5162 c-158 -89 -199 -118 -266 -188 -67 -71 -187 -252 -263
-394 -93 -177 -207 -440 -204 -469 l3 -26 115 2 c202 3 301 34 450 141 67 48
90 71 109 109 60 123 163 363 181 422 19 65 60 358 60 433 0 36 -1 38 -33 38
-22 0 -72 -22 -152 -68z"/>
<path d="M5947 3567 c-92 -50 -100 -57 -135 -117 -57 -97 -136 -173 -227 -217
-61 -30 -82 -46 -97 -73 l-18 -35 25 -3 c26 -3 299 49 362 69 25 8 43 27 77
82 39 63 146 310 146 337 0 20 -38 8 -133 -43z"/>
<path d="M4232 3412 c-15 -10 -72 -191 -72 -228 0 -25 -6 -23 135 -44 150 -21
528 -51 577 -44 13 1 95 10 183 19 210 22 219 23 239 38 16 11 14 19 -18 106
-19 52 -39 98 -43 102 -11 11 -410 28 -503 22 -47 -3 -109 1 -165 11 -111 20
-315 31 -333 18z"/>
<path d="M3233 2587 l-63 -10 0 -307 c0 -169 3 -402 7 -518 l6 -212 79 0 78 0
0 128 0 127 80 17 c159 33 244 94 312 225 52 97 64 170 44 256 -48 206 -181
309 -393 306 -48 -1 -116 -6 -150 -12z m242 -118 c62 -17 118 -82 140 -162 49
-180 -56 -340 -242 -371 -18 -3 -34 -2 -36 2 -3 4 -8 125 -12 269 -7 250 -6
261 11 266 35 9 99 7 139 -4z"/>
<path d="M5297 2564 c-16 -5 -17 -34 -15 -477 l3 -472 90 3 c130 4 201 19 281
57 179 86 252 219 242 441 -6 120 -30 189 -96 277 -90 117 -196 166 -377 172
-60 2 -118 2 -128 -1z m303 -147 c57 -29 114 -110 135 -192 23 -89 20 -221 -7
-292 -41 -110 -162 -203 -265 -203 l-33 0 0 354 c0 274 3 356 13 360 23 10
112 -5 157 -27z"/>
<path d="M4015 2539 c-3 -13 -48 -229 -101 -479 -52 -250 -97 -463 -100 -472
-5 -16 3 -18 70 -18 42 0 76 2 76 5 0 12 61 290 65 293 2 3 48 5 102 6 l97 1
13 -75 c7 -41 17 -106 24 -143 l11 -68 57 7 c31 3 59 9 62 13 6 6 -164 927
-172 935 -2 3 -48 8 -101 12 -96 7 -97 7 -103 -17z m155 -338 c17 -101 28
-186 26 -189 -10 -9 -146 -15 -146 -6 0 11 70 354 76 373 2 8 6 12 9 10 2 -3
18 -87 35 -188z"/>
<path d="M4506 2064 c-3 -272 -2 -482 3 -487 10 -10 121 1 142 14 11 7 15 66
19 291 l5 283 129 -292 129 -292 90 -3 90 -3 -6 320 c-4 176 -7 391 -7 478 l0
157 -70 0 -70 0 -1 -302 c0 -204 -3 -298 -10 -288 -6 8 -70 146 -144 305
l-134 290 -79 3 -79 3 -7 -477z"/>
<path d="M6185 2523 c-17 -45 -305 -927 -305 -935 0 -5 35 -8 77 -6 l76 3 40
142 40 141 81 7 c45 4 101 5 126 3 l45 -3 25 -132 24 -132 76 6 c41 3 76 7 78
8 2 2 -14 76 -137 603 -39 166 -71 305 -71 307 0 3 -38 5 -84 5 -71 0 -85 -3
-91 -17z m125 -514 c-14 -4 -56 -7 -93 -8 -61 -1 -68 1 -63 17 3 9 26 91 52
182 25 91 49 170 52 175 4 6 23 -73 42 -175 l36 -185 -26 -6z"/>
<path d="M8435 2170 c-22 -11 -88 -42 -147 -69 -59 -27 -147 -73 -195 -102
-85 -51 -88 -53 -193 -61 -128 -11 -384 16 -570 58 -90 21 -133 25 -200 22
-47 -2 -92 -8 -99 -12 -12 -8 -13 -54 -8 -272 3 -145 9 -269 13 -275 10 -17
435 -4 584 16 289 41 475 121 634 274 111 107 197 242 236 370 15 52 16 60 3
65 -8 3 -15 6 -16 5 -1 0 -20 -9 -42 -19z"/>
<path d="M2500 2153 c-101 -10 -311 -46 -355 -60 -64 -21 -118 -54 -143 -90
-11 -15 -43 -73 -71 -128 -48 -92 -56 -119 -106 -350 -58 -263 -83 -469 -71
-590 5 -54 48 -193 78 -252 16 -32 35 -28 43 9 20 87 85 231 201 436 70 125
138 242 151 260 43 58 110 83 273 102 80 9 159 23 175 31 28 13 31 20 36 79 4
36 8 175 10 310 l4 245 -95 1 c-52 1 -111 -1 -130 -3z"/>
<path d="M3257 1422 l-49 -16 6 -106 c17 -289 17 -290 34 -290 51 1 61 11 64
63 3 50 3 50 48 65 118 38 167 127 126 227 -30 71 -121 93 -229 57z m128 -48
c20 -8 45 -56 45 -88 0 -31 -51 -91 -89 -104 -28 -10 -29 -9 -35 26 -11 66 -7
160 7 165 18 8 53 8 72 1z"/>
<path d="M5512 1409 l-62 -20 2 -182 3 -182 26 -3 c26 -3 26 -2 33 76 6 71 10
81 29 86 40 11 45 6 97 -80 51 -83 53 -85 84 -78 17 3 32 8 34 9 2 2 -21 43
-52 91 l-55 88 35 38 c71 79 23 180 -85 177 -14 0 -54 -9 -89 -20z m116 -58
c8 -5 12 -22 10 -42 -2 -25 -12 -39 -37 -56 -19 -13 -45 -23 -57 -23 -22 0
-24 4 -24 58 0 32 3 62 7 65 9 10 85 8 101 -2z"/>
<path d="M6404 1385 c-19 -47 -114 -326 -114 -336 0 -5 15 -9 33 -9 29 0 34 4
47 43 l15 42 57 3 56 3 14 -43 c13 -39 18 -43 51 -46 l36 -3 -19 58 c-10 32
-37 118 -60 191 -41 131 -41 132 -71 132 -25 0 -33 -6 -45 -35z m46 -130 c5
-14 13 -37 16 -50 6 -23 3 -25 -29 -25 l-35 0 16 50 c9 28 17 50 19 50 2 0 8
-11 13 -25z"/>
<path d="M3595 1404 c-6 -2 -9 -74 -7 -195 l3 -191 77 7 c168 13 172 14 172
42 l0 26 -74 -6 -73 -5 -6 111 c-4 62 -7 136 -7 165 l0 52 -37 -1 c-21 0 -42
-2 -48 -5z"/>
<path d="M4031 1388 c-61 -166 -141 -387 -141 -393 0 -3 14 -5 31 -3 28 3 34
9 52 56 l20 52 48 2 c27 1 57 2 66 2 11 1 22 -16 36 -56 18 -57 19 -58 58 -58
21 0 39 3 39 8 1 4 -28 98 -62 209 l-63 203 -38 0 c-30 0 -39 -5 -46 -22z m63
-183 l14 -45 -44 0 c-24 0 -44 2 -44 4 0 2 7 23 15 47 28 80 25 76 36 57 6
-10 16 -38 23 -63z"/>
<path d="M4348 1403 l-88 -4 0 -39 0 -40 70 0 70 0 0 -150 0 -150 40 0 40 0 0
109 c0 59 3 129 6 155 l7 46 62 0 c67 0 75 6 75 56 0 24 0 24 -97 22 -54 -1
-137 -4 -185 -5z"/>
<path d="M5881 1403 l-34 -4 7 -82 c3 -45 6 -124 6 -174 l0 -93 35 0 c34 0 35
1 35 38 0 22 3 74 7 116 l6 77 20 -33 c55 -90 44 -88 90 -17 l42 64 8 -122 9
-123 35 0 34 0 -3 174 c-2 96 -5 177 -8 180 -3 2 -24 2 -46 -1 -38 -5 -44 -10
-75 -64 -19 -32 -37 -59 -40 -59 -4 0 -22 29 -40 65 -19 36 -38 64 -44 63 -5
0 -25 -3 -44 -5z"/>
<path d="M4720 1303 c0 -43 3 -129 7 -191 l6 -113 31 3 31 3 3 73 c3 81 0 78
85 87 52 6 57 9 57 31 0 23 -3 24 -70 24 l-70 0 0 39 c0 38 0 38 46 45 26 3
66 6 90 6 44 0 44 0 44 35 l0 35 -130 0 -130 0 0 -77z"/>
<path d="M5142 1353 c-58 -28 -86 -76 -90 -152 -2 -54 1 -73 20 -106 72 -123
227 -111 272 22 56 165 -63 305 -202 236z m112 -68 c45 -48 42 -168 -4 -210
-28 -25 -68 -22 -99 9 -23 24 -26 34 -26 100 0 65 3 78 24 100 32 34 74 34
105 1z"/>
</g>
</svg>
